# xmcd CD database file
#
# Track frame offsets:
#	150
#	13962
#	28521
#	43806
#	57271
#	70045
#	85449
#	98213
#	108100
#	123778
#	136974
#	150960
#	165146
#	180661
#	196027
#	212325
#
# Disc length: 3050 seconds
#
# Revision: 0
# Processed by: cddbd v1.5.1PL0 Copyright (c) Steve Scherf et al.
# Submitted via: CDex 1.51
#
DISCID=c00be810
DTITLE=Benny Goodman - Ultimate Jazz and Blues
DYEAR=2004
DGENRE=Jazz
TTITLE0=Get Happy
TTITLE1=Stompin' at the Savoy
TTITLE2=When I Grow to old to Dream
TTITLE3=You're a Sweetheart
TTITLE4=Blue Loy
TTITLE5=Somebody Stole my Gal
TTITLE6=You Brought a new Kind of Love to Me
TTITLE7=Mad Boogie
TTITLE8=Jumpin' at the Woodside
TTITLE9=Let's Dance
TTITLE10=Jersey Bounce
TTITLE11=What can I say after I say I'm Sorry
TTITLE12=Rock Rimmon
TTITLE13=Incognito
TTITLE14=Air Mail Special
TTITLE15=One O'Clok Jump
EXTD=YEAR: 2004
EXTT0=
EXTT1=
EXTT2=
EXTT3=
EXTT4=
EXTT5=
EXTT6=
EXTT7=
EXTT8=
EXTT9=
EXTT10=
EXTT11=
EXTT12=
EXTT13=
EXTT14=
EXTT15=
PLAYORDER=
